<svg width="140" height="139" xmlns="http://www.w3.org/2000/svg" preserveAspectRatio="xMidYMid meet"> 
 <g>
  <title>background</title>
  <rect x="-1" y="-1" width="35.73494" height="35.493976" id="canvas_background" fill="none"/>
 </g>
 <g>
  <title>Layer 1</title>
  <g transform="translate(0,139) scale(0.10000000149011612,-0.10000000149011612) " fill="#423F3F" id="svg_1">
   <path d="m670,1318c-13,-24 -46,-76 -74,-117l-51,-75l-10,64c-5,35 -15,65 -20,67c-31,10 -175,-203 -218,-322l-24,-68l-20,29c-11,16 -23,37 -26,47c-12,32 -24,17 -48,-55c-20,-62 -24,-93 -24,-208c0,-129 1,-137 28,-189c47,-89 135,-162 247,-206c37,-14 49,-25 70,-67c48,-96 161,-142 265,-108c45,15 122,88 131,124c5,20 16,28 48,37c194,52 319,216 304,401c-5,59 -53,238 -64,238c-3,0 -16,-12 -29,-27l-23,-28l-5,25c-3,14 -10,54 -16,90c-15,83 -67,192 -118,249l-39,44l-42,-71c-23,-39 -47,-74 -52,-77c-5,-3 -12,7 -16,22c-18,72 -111,223 -138,223c-7,0 -23,-19 -36,-42zm-57,-579c12,-6 34,-23 50,-37l27,-26l28,26c39,37 65,48 114,48c52,0 100,-27 129,-72c16,-26 19,-45 16,-92c-3,-54 -7,-62 -43,-96c-28,-25 -53,-39 -83,-44c-45,-7 -46,-10 -26,-58c7,-17 -3,-18 -134,-18c-78,0 -141,4 -141,8c0,5 7,17 15,28c22,29 19,33 -26,40c-145,24 -189,200 -69,282c36,24 106,30 143,11zm227,-456c0,-35 -66,-101 -112,-113c-67,-19 -140,16 -175,83c-25,49 -18,52 141,52c145,0 146,0 146,-22z" id="svg_2"/>
  </g>
  <ellipse fill="#000000" stroke="#111" stroke-width="1.5" cx="56.385542" cy="79.84639" id="svg_7" rx="5.301205" ry="4.939759" opacity="0.6"/>
  <rect fill="#000000" stroke="#111" stroke-width="1.5" x="78.313253" y="74.183739" width="4.33735" height="11.325302" id="svg_8" opacity="0.6"/>
 </g>
</svg>